<?xml version="1.0" standalone="no"?>
<!DOCTYPE svg PUBLIC "-//W3C//DTD SVG 20010904//EN" "http://www.w3.org/TR/2001/REC-SVG-20010904/DTD/svg10.dtd">
<svg version="1.0" xmlns="http://www.w3.org/2000/svg" width="1280.000000pt" height="904.000000pt" viewBox="0 0 1280.000000 904.000000" preserveAspectRatio="xMidYMid meet">
	<metadata>
		Created by potrace 1.15, written by Peter Selinger 2001-2017
	</metadata>
	<g transform="translate(0.000000,904.000000) scale(0.100000,-0.100000)" fill="#1e272e" stroke-width="25" stroke="#f1f2f6">
		<path d="M2170 8777 c0 -16 59 -137 119 -240 34 -59 70 -127 81 -152 10 -24
27 -48 37 -53 29 -15 122 -36 129 -29 14 13 -130 213 -244 340 -26 29 -64 72
-84 97 -21 25 -38 42 -38 37z" />
		<path d="M3348 8588 c-47 -10 -126 -68 -148 -108 -9 -17 -3 -18 113 -17 117 1
124 0 175 -28 58 -31 128 -103 163 -165 18 -32 30 -41 70 -50 149 -36 217
-167 207 -399 -3 -87 -7 -102 -38 -158 -19 -34 -32 -65 -28 -68 10 -10 188 67
232 100 22 17 47 44 55 60 16 33 17 29 -53 195 -35 85 -36 86 -36 234 l0 149
-34 41 c-57 69 -125 102 -249 120 -78 11 -139 28 -222 61 -120 47 -130 49
-207 33z" />
		<path d="M2792 8490 c-18 -11 -46 -41 -62 -67 -28 -45 -90 -190 -90 -213 0 -5
-18 -50 -40 -99 -33 -74 -40 -99 -40 -152 0 -64 23 -128 48 -137 6 -2 25 17
44 41 60 81 64 79 71 -32 8 -132 23 -185 64 -228 40 -43 52 -39 24 8 -11 19
-30 70 -43 114 -20 71 -23 102 -23 284 l0 203 38 32 c20 17 37 39 37 48 0 36
32 96 56 107 14 6 56 11 94 11 39 0 70 3 70 8 -1 11 -31 44 -64 70 -39 30
-136 31 -184 2z" />
		<path d="M3189 8385 c-72 -53 -117 -68 -188 -62 -36 2 -73 8 -82 11 -14 6 -17
-7 -22 -97 -5 -89 -11 -118 -43 -198 -30 -74 -39 -111 -42 -174 -4 -91 8 -92
27 -2 20 90 73 186 139 249 74 71 142 105 234 118 40 6 98 16 128 22 151 30
191 22 236 -49 25 -40 29 -44 32 -24 9 60 -116 187 -212 216 -27 8 -77 15
-111 15 -50 0 -68 -5 -96 -25z" />
		<path d="M1960 8286 c-69 -14 -141 -56 -174 -99 -49 -63 -59 -139 -52 -360 8
-226 3 -252 -55 -322 -22 -26 -39 -49 -39 -51 0 -12 78 -157 115 -214 51 -79
133 -162 183 -186 38 -18 212 -27 228 -12 4 4 -6 18 -22 30 -107 80 -180 197
-228 362 -26 89 -42 176 -32 176 3 0 26 -16 52 -35 50 -39 69 -43 78 -19 11
28 6 75 -20 201 -14 69 -23 127 -20 130 3 3 43 -34 89 -81 l84 -86 94 0 c91 0
309 35 309 49 0 4 -14 45 -31 92 -46 125 -41 211 19 302 14 20 23 39 21 41
-14 10 -196 69 -254 81 -83 17 -267 18 -345 1z" />
		<path d="M4253 8219 c-152 -72 -153 -74 -137 -136 8 -31 31 -29 90 8 50 32
204 176 204 191 0 13 -7 10 -157 -63z" />
		<path d="M3432 8164 c-24 -7 -95 -20 -158 -28 -86 -11 -127 -22 -164 -42 -63
-34 -64 -47 -2 -27 70 22 195 22 261 -1 69 -24 133 -82 160 -147 12 -27 27
-87 33 -133 12 -94 -3 -196 -47 -311 -13 -35 -21 -66 -18 -69 9 -8 127 59 203
116 78 58 140 150 140 208 0 53 -45 115 -139 194 -86 70 -161 162 -183 221
-13 38 -21 40 -86 19z" />
		<path d="M3115 8011 c-58 -16 -84 -30 -126 -68 -100 -90 -126 -182 -70 -245
25 -28 35 -32 93 -36 64 -4 67 -3 106 32 51 46 64 82 47 123 -15 36 -55 64
-55 39 0 -15 -45 -56 -61 -56 -22 0 -49 42 -49 75 0 29 4 36 26 41 25 7 119
-1 147 -12 14 -5 36 -48 55 -109 l10 -30 17 40 c17 39 17 41 -4 77 -28 49 -27
60 4 46 14 -6 34 -31 46 -56 20 -40 21 -49 10 -99 -23 -99 -104 -157 -240
-172 l-66 -8 50 -23 c112 -53 259 -12 331 91 22 32 29 55 32 105 2 35 1 75 -2
90 -8 31 -89 120 -128 140 -34 18 -133 26 -173 15z" />
		<path d="M4351 7898 c-30 -180 -126 -251 -477 -353 -8 -2 -4 -33 14 -97 14
-51 27 -94 28 -96 1 -2 42 19 92 47 196 109 308 194 341 260 28 54 45 153 37
222 -10 96 -21 101 -35 17z" />
		<path d="M2620 7728 c-92 -116 -244 -368 -304 -502 -29 -67 -31 -77 -30 -196
0 -69 6 -152 13 -185 13 -58 59 -165 71 -165 4 0 2 30 -3 68 -5 37 -7 132 -4
212 5 167 29 261 94 368 54 88 142 184 197 212 43 23 47 28 42 55 -3 17 -10
64 -16 105 -7 41 -13 76 -15 78 -2 2 -22 -20 -45 -50z" />
		<path d="M3375 7553 c-32 -25 -125 -64 -173 -73 -50 -9 -150 8 -202 35 -40 21
-37 10 20 -58 92 -111 160 -142 276 -126 80 11 134 36 134 63 0 24 -26 165
-31 171 -2 2 -13 -4 -24 -12z" />
		<path d="M3690 7454 c-163 -105 -266 -149 -439 -189 -248 -56 -337 -101 -466
-237 -74 -77 -92 -105 -160 -239 -42 -83 -74 -153 -72 -155 3 -3 57 42 120
100 110 100 116 108 123 153 3 27 14 56 23 67 23 27 268 200 320 226 73 37
168 31 313 -19 138 -49 239 -56 295 -21 82 50 115 180 78 315 -9 36 -20 65
-24 65 -4 0 -54 -30 -111 -66z" />
		<path d="M4340 7501 c-114 -37 -269 -130 -382 -227 -61 -53 -113 -112 -106
-120 3 -2 48 20 100 51 84 49 220 105 255 105 21 0 16 -15 -46 -143 -84 -173
-115 -204 -393 -403 -20 -15 -58 -49 -85 -76 l-48 -49 0 -82 0 -82 -30 -3
c-77 -8 -380 -64 -464 -87 -203 -55 -301 -140 -325 -282 -3 -18 -1 -35 3 -38
5 -3 12 14 16 37 15 86 92 125 225 115 41 -4 113 -9 160 -13 l85 -6 65 42 c98
64 137 80 207 80 81 0 103 -10 175 -75 81 -73 114 -83 173 -55 24 12 53 36 64
53 18 29 23 45 37 114 6 34 60 44 156 32 105 -15 121 -9 149 47 20 43 21 55
15 160 -8 143 -1 162 99 264 40 42 77 89 81 104 9 39 -1 99 -36 208 -36 113
-39 179 -10 208 27 27 59 33 146 28 88 -6 90 2 18 50 -87 57 -209 75 -304 43z" />
		<path d="M1591 7266 c-41 -42 -108 -79 -183 -101 -32 -9 -58 -19 -58 -23 0
-35 266 -401 363 -500 139 -141 223 -163 343 -91 48 29 174 162 174 183 0 3
-24 -4 -52 -15 -45 -18 -67 -20 -153 -16 -83 4 -139 16 -164 34 -3 2 5 10 17
19 29 20 28 30 -4 38 -57 15 -115 50 -163 99 -46 47 -101 118 -101 131 0 3 33
-10 73 -29 105 -48 180 -65 293 -65 104 0 153 13 98 25 -67 15 -125 38 -180
71 -70 42 -192 160 -235 227 -17 26 -32 47 -33 47 -1 0 -17 -15 -35 -34z" />
		<path d="M3525 6962 c-30 -60 -62 -99 -140 -177 -88 -88 -184 -165 -206 -165
-4 0 12 57 36 128 48 140 69 243 42 207 -8 -11 -38 -69 -67 -128 -29 -60 -70
-131 -92 -158 -38 -48 -155 -143 -213 -172 -43 -21 -138 -39 -230 -43 -44 -2
-84 -3 -89 -4 -34 -1 144 -127 211 -149 l42 -14 48 40 c26 22 67 50 91 62 78
40 386 115 555 136 l47 6 0 61 c0 34 7 74 16 93 16 33 86 105 133 135 23 15
23 18 16 118 l-7 102 -77 0 -76 0 -40 -78z" />
		<path d="M2220 6601 c-81 -84 -186 -140 -276 -148 -55 -5 -65 -2 -150 41 l-90
45 -60 -23 c-334 -130 -356 -140 -403 -182 -47 -42 -111 -145 -111 -179 0 -10
22 11 53 49 44 56 64 72 132 105 139 67 191 76 430 76 116 0 287 -2 380 -5
162 -5 173 -4 233 19 35 13 66 30 69 38 3 7 -13 41 -34 76 -22 34 -52 83 -67
110 -15 26 -30 47 -34 47 -4 -1 -36 -31 -72 -69z" />
		<path d="M2435 6327 c-58 -32 -95 -110 -154 -322 -99 -351 -161 -638 -187
-865 -20 -173 -14 -502 11 -670 26 -178 112 -500 191 -718 19 -53 33 -100 31
-105 -5 -16 -245 183 -354 294 -325 332 -586 665 -768 978 -27 46 -50 80 -52
74 -6 -18 64 -181 123 -285 131 -232 326 -505 535 -751 169 -198 167 -193 82
-162 -100 36 -185 53 -319 65 -116 11 -294 5 -294 -9 0 -4 78 -15 173 -25 139
-14 192 -24 277 -52 220 -73 368 -164 548 -338 197 -190 279 -324 350 -571
125 -435 175 -640 226 -931 l23 -132 -47 34 c-64 46 -120 64 -199 64 -316 0
-580 -284 -581 -624 0 -67 36 -215 75 -307 117 -277 386 -579 725 -812 52 -36
112 -73 132 -83 l37 -17 62 32 c33 17 108 63 164 101 349 234 630 568 731 870
26 75 29 99 29 205 0 97 -4 134 -23 195 -79 256 -323 444 -556 428 -69 -5
-167 -44 -232 -95 l-42 -31 -41 164 c-40 161 -41 166 -41 344 0 200 11 325 42
475 26 129 81 321 114 399 15 34 27 69 27 79 1 9 4 17 8 17 3 0 35 19 70 42
94 62 231 118 339 139 52 10 182 24 289 31 236 15 221 27 -44 35 -210 7 -316
-5 -450 -48 -51 -16 -95 -29 -99 -29 -20 0 128 207 230 322 146 163 481 440
732 603 50 33 92 64 92 68 0 12 -193 -92 -343 -185 -160 -99 -234 -159 -421
-338 -108 -103 -151 -139 -156 -129 -5 8 -35 95 -68 194 -93 278 -172 475
-172 429 0 -5 18 -62 39 -127 22 -64 56 -181 77 -259 33 -123 38 -159 38 -255
l1 -111 -45 -64 c-104 -148 -150 -223 -202 -330 -102 -207 -150 -359 -187
-587 -12 -68 -22 -125 -24 -127 -4 -5 -206 511 -336 861 -154 416 -313 899
-345 1050 -47 226 -60 354 -60 590 1 197 3 234 27 358 63 320 181 594 343 792
24 30 44 57 44 59 0 8 -140 126 -148 126 -4 0 -25 -10 -47 -23z" />
		<path d="M3367 6177 c-66 -34 -174 -47 -240 -29 -20 6 -37 7 -37 3 0 -24 268
-361 359 -451 117 -117 183 -158 329 -204 104 -33 152 -63 220 -134 59 -63 65
-54 23 33 -40 84 -97 135 -219 197 -57 29 -121 67 -141 85 -89 75 -160 233
-197 436 -10 54 -22 96 -28 96 -6 -1 -37 -15 -69 -32z" />
		<path d="M811 5913 c-19 -116 -31 -244 -31 -330 0 -76 -10 -108 -25 -83 -3 5
-12 10 -19 10 -17 0 -66 -212 -66 -288 0 -58 -2 -63 -26 -72 -26 -10 -26 -11
-22 -103 4 -110 36 -192 99 -253 21 -21 39 -47 39 -58 0 -40 104 -108 250
-163 70 -27 227 -42 267 -26 22 8 22 9 -21 98 l-43 90 -67 18 c-120 30 -247
104 -276 158 -9 16 -4 15 27 -7 66 -45 127 -72 191 -84 34 -7 65 -11 67 -8 5
5 -29 115 -64 208 -19 49 -29 60 -97 105 -66 44 -151 131 -140 142 2 3 35 -16
73 -41 64 -44 93 -55 93 -38 0 4 -20 70 -45 146 -24 76 -47 155 -50 175 -5 31
2 23 47 -53 l53 -90 7 40 c4 21 7 71 7 111 1 39 5 74 10 77 10 7 21 -76 21
-171 0 -114 16 -168 88 -295 36 -65 69 -118 73 -118 18 0 68 230 70 320 1 37
2 41 9 20 14 -44 11 -283 -5 -365 -13 -69 -13 -80 1 -107 12 -23 145 -227 161
-248 6 -7 69 68 99 118 39 65 62 142 70 233 7 79 6 81 -13 75 -20 -6 -21 -2
-25 96 -5 115 -31 206 -82 290 -33 55 -48 62 -56 27 -5 -22 -6 -22 -23 5 -44
67 -214 236 -238 236 -5 0 -9 -11 -9 -25 0 -14 -2 -25 -4 -25 -3 0 -49 46
-103 101 -115 119 -228 219 -247 219 -10 0 -18 -22 -25 -67z" />
		<path d="M2845 5233 c33 -78 47 -171 55 -343 4 -102 4 -193 1 -203 -6 -17 -8
-17 -20 -3 -22 26 -40 18 -48 -21 -4 -21 -8 -115 -8 -209 0 -141 -2 -171 -14
-166 -19 7 -8 -26 42 -123 32 -60 64 -102 137 -175 81 -82 105 -100 164 -124
38 -15 98 -30 133 -33 64 -6 64 -6 59 18 -3 13 -8 47 -11 74 -3 28 -12 73 -20
100 -13 48 -20 55 -97 107 -109 75 -243 206 -226 223 2 2 59 -37 126 -87 68
-50 126 -88 129 -84 7 7 -52 237 -70 276 -7 15 -42 41 -86 65 -79 42 -76 56 6
35 25 -6 47 -9 49 -7 2 2 -8 45 -22 96 -14 51 -23 95 -20 98 8 8 89 -108 127
-181 19 -36 37 -66 41 -66 3 0 9 18 13 40 13 75 25 53 25 -45 l0 -96 58 -117
c32 -64 61 -118 66 -120 5 -2 17 20 27 49 36 100 42 82 29 -80 -7 -91 -7 -143
0 -169 20 -72 26 -72 59 -2 63 135 68 411 11 563 -32 82 -35 85 -63 58 l-25
-22 -21 63 c-25 76 -90 190 -133 235 -33 34 -48 35 -48 2 0 -10 -2 -19 -5 -19
-2 0 -95 92 -206 205 -111 113 -206 205 -212 205 -5 0 -6 -8 -2 -17z" />
		<path d="M4341 4904 c-78 -21 -145 -60 -197 -116 -44 -48 -64 -54 -64 -20 -1
15 -3 14 -17 -3 -26 -33 -80 -156 -99 -225 -18 -66 -27 -301 -12 -315 8 -9
146 75 169 102 9 10 21 54 27 97 8 58 22 102 52 163 23 46 45 81 49 79 4 -3
-2 -36 -15 -73 -29 -89 -40 -193 -21 -193 12 0 193 76 237 99 8 4 36 43 61 87
47 79 88 124 114 124 10 0 5 -14 -16 -44 -31 -47 -63 -115 -56 -122 2 -2 57
18 123 45 65 27 135 52 154 56 33 7 32 5 -30 -42 l-64 -48 49 -7 c28 -3 73 -7
102 -7 28 -1 55 -5 58 -11 3 -5 -2 -10 -12 -10 -72 0 -281 -33 -305 -48 -50
-32 -208 -155 -208 -163 0 -13 210 -48 298 -49 6 0 12 -4 12 -10 0 -6 -78 -10
-212 -10 l-213 0 -75 -60 c-41 -32 -100 -74 -132 -92 -32 -18 -58 -36 -58 -40
0 -17 140 -88 200 -102 79 -18 240 -39 248 -32 3 3 -1 12 -8 21 -7 9 -11 17
-9 18 2 1 56 13 118 25 117 24 236 67 281 102 l25 20 -22 6 c-31 9 -29 14 18
49 58 43 189 207 189 238 0 4 -9 11 -19 15 -17 6 -11 17 51 87 97 110 208 254
208 270 0 17 -121 27 -325 27 l-156 0 16 25 c9 14 15 26 13 28 -5 6 -176 33
-248 40 -40 4 -76 2 -94 -4 -32 -13 -46 -7 -28 11 7 7 12 16 12 20 0 13 -111
8 -169 -8z" />
	</g>
</svg>
